<svg xmlns="http://www.w3.org/2000/svg" width="148.006" height="55" viewBox="0 0 148.006 55">
  <g id="logo" transform="translate(-0.574 -0.554)">
    <path id="Path_2225" data-name="Path 2225" d="M42.534,15.792,21.178,34.816s-11.46,10.01-13.5,11.493a.356.356,0,0,1-.48-.116,11.439,11.439,0,0,1-.225-3.06V.89H.578V43.133c0,3.344-.414,9.574,6.806,9.574,1.127,0,3.265,0,18.106-13.143h0l.116-.065h0L42.534,24.159Z" transform="translate(0 -0.092)" fill="#47d6c1"/>
    <path id="Path_2226" data-name="Path 2226" d="M69.942.573c-1.454.065-2.763.458-14.012,9.806A9.59,9.59,0,0,0,46.346.8H35.854a9.6,9.6,0,0,0-9.584,9.588V36.4l1.92-1.672,4.472-3.984V10.387a3.2,3.2,0,0,1,3.192-3.2H46.346a3.206,3.206,0,0,1,3.2,3.2V15.7h0v8.367h0v18.7a3.2,3.2,0,0,1-3.2,3.177H35.854a3.2,3.2,0,0,1-3.192-3.191V39.363l-.044.044h0l-.109.1h0c-2.312,2.05-4.3,3.78-6.028,5.241a9.6,9.6,0,0,0,9.38,7.611H46.346a9.59,9.59,0,0,0,9.584-9.588V18.783l.044.036c5.417-4.8,11.634-10.112,13.7-11.631a.451.451,0,0,1,.618.131c.022.131.08,2.29.087,3.024V52.288H76.77v-41.9C76.784,4.753,77.439.224,69.942.573Z" transform="translate(-7.011 0)"/>
    <g id="Group_2243" data-name="Group 2243" transform="translate(80.882 18.016)">
      <path id="Path_2227" data-name="Path 2227" d="M116.056,24.689a4.916,4.916,0,1,1,0,9.831H112.42V24.689Zm-1.542,1.891V32.6h1.542a2.821,2.821,0,0,0,2.08-.873,2.909,2.909,0,0,0,.858-2.138,2.959,2.959,0,0,0-.836-2.138,2.814,2.814,0,0,0-2.1-.873Z" transform="translate(-111.439 -24.615)"/>
      <path id="Path_2228" data-name="Path 2228" d="M128.242,26.411a1.127,1.127,0,0,1-.822.291,1.011,1.011,0,0,1-.727-.291,1.025,1.025,0,0,1-.284-.727,1,1,0,0,1,1.047-1.054,1.055,1.055,0,0,1,.822,1.811Zm.16,8.064h-1.891V27.611H128.4Z" transform="translate(-115.255 -24.599)"/>
      <path id="Path_2229" data-name="Path 2229" d="M136.272,34.415a.669.669,0,0,1-.08.109l-.247.233a2.792,2.792,0,0,1-.407.3,2.1,2.1,0,0,1-.567.24,2.414,2.414,0,0,1-.727.109,2.865,2.865,0,0,1-2.131-1.025,3.519,3.519,0,0,1,0-4.814,2.865,2.865,0,0,1,2.13-1.025,2.487,2.487,0,0,1,1.105.247,2.138,2.138,0,0,1,.727.48l.211.247v-.836h1.891v6.3a3.345,3.345,0,0,1-1.04,2.494,3.556,3.556,0,0,1-2.6,1.011,4.2,4.2,0,0,1-2.043-.516,4.448,4.448,0,0,1-.625-.429,2.292,2.292,0,0,1-.378-.371l-.131-.153,1.193-1.127a2.235,2.235,0,0,0,.211.254,2.116,2.116,0,0,0,.633.407,2.269,2.269,0,0,0,1.047.247,1.687,1.687,0,0,0,1.818-1.818Zm-2.7-1.243a1.454,1.454,0,0,0,1.091.48,1.505,1.505,0,0,0,1.127-.494,1.716,1.716,0,0,0,0-2.378,1.527,1.527,0,0,0-1.113-.451,1.454,1.454,0,0,0-1.091.473,1.832,1.832,0,0,0,0,2.407Z" transform="translate(-116.552 -25.666)"/>
      <path id="Path_2230" data-name="Path 2230" d="M145.059,26.4a1.134,1.134,0,0,1-.822.291,1.011,1.011,0,0,1-.727-.291,1.054,1.054,0,0,1,.727-1.811,1.134,1.134,0,0,1,.822.291,1.12,1.12,0,0,1,0,1.52Zm.174,8.064h-1.891V27.6h1.891Z" transform="translate(-119.835 -24.588)"/>
      <path id="Path_2231" data-name="Path 2231" d="M149.2,26h1.651v2.181h1.454v1.68h-1.454v2.683a.727.727,0,0,0,.24.545.814.814,0,0,0,.6.225,1.912,1.912,0,0,0,.356,0,1.455,1.455,0,0,0,.262-.08h.087v1.614a3.352,3.352,0,0,1-1.265.2q-2.181,0-2.181-2.378V29.81H147.8v-1.68h.633a.727.727,0,0,0,.545-.254.945.945,0,0,0,.225-.654Z" transform="translate(-121.092 -24.973)"/>
      <path id="Path_2232" data-name="Path 2232" d="M159.6,34.843l-.225.233a2.61,2.61,0,0,1-.625.342,2.392,2.392,0,0,1-1.025.225,2.421,2.421,0,0,1-1.665-.567,1.8,1.8,0,0,1-.647-1.382,1.92,1.92,0,0,1,.545-1.4,2.64,2.64,0,0,1,1.491-.727l2.181-.385a.88.88,0,0,0-.313-.727,1.294,1.294,0,0,0-.873-.276,2.043,2.043,0,0,0-.851.175,1.593,1.593,0,0,0-.538.364l-.16.16-1.054-1c0-.036.065-.08.109-.145a3.132,3.132,0,0,1,.32-.32,3.759,3.759,0,0,1,.545-.4,3.978,3.978,0,0,1,.771-.32,3.447,3.447,0,0,1,.982-.145,2.952,2.952,0,0,1,2.116.778,2.567,2.567,0,0,1,.822,1.949v4.276H159.62Zm-.378-1.113A1.585,1.585,0,0,0,159.6,32.6v-.211l-1.534.284c-.516.08-.771.334-.771.771s.3.727.909.727A1.323,1.323,0,0,0,159.22,33.731Z" transform="translate(-123.169 -25.665)"/>
      <path id="Path_2233" data-name="Path 2233" d="M168.291,34.492H166.4v-9.8h1.891Z" transform="translate(-126.168 -24.616)"/>
      <path id="Path_2234" data-name="Path 2234" d="M118.456,41.6a4.618,4.618,0,0,1,1.149.487c.3.2.56.385.793.574a3.927,3.927,0,0,1,.494.487l.153.2-1.331,1.338-.109-.16c-.051-.065-.16-.175-.32-.334a3.409,3.409,0,0,0-.545-.422,3.534,3.534,0,0,0-.771-.334A3.241,3.241,0,1,0,117,49.725a3.426,3.426,0,0,0,1.025-.145,3.09,3.09,0,0,0,.807-.349,4.568,4.568,0,0,0,.567-.407,2.029,2.029,0,0,0,.356-.356l.109-.138,1.265,1.331-.167.211a5.089,5.089,0,0,1-.5.473,4.791,4.791,0,0,1-.829.6,5.519,5.519,0,0,1-2.632.684,5.206,5.206,0,0,1-3.781-1.505,5,5,0,0,1,0-7.221A5.228,5.228,0,0,1,117,41.4,5.389,5.389,0,0,1,118.456,41.6Z" transform="translate(-111.236 -29.175)"/>
      <path id="Path_2235" data-name="Path 2235" d="M129.983,51.836l-.233.233a2.523,2.523,0,0,1-.633.371,2.632,2.632,0,0,1-2.7-.342,1.789,1.789,0,0,1-.64-1.382,1.941,1.941,0,0,1,.538-1.4,2.661,2.661,0,0,1,1.454-.727l2.181-.385a.88.88,0,0,0-.313-.727,1.3,1.3,0,0,0-.88-.276,2.014,2.014,0,0,0-.844.175,1.52,1.52,0,0,0-.538.364l-.16.16-1.047-1.047.116-.145a3.1,3.1,0,0,1,.32-.32,3.163,3.163,0,0,1,1.316-.727,3.439,3.439,0,0,1,.974-.145,2.981,2.981,0,0,1,2.131.8,2.567,2.567,0,0,1,.814,1.949v4.276h-1.883Zm-.407-1.113a1.585,1.585,0,0,0,.378-1.134v-.211l-1.534.284c-.516.08-.778.334-.778.771s.305.727.909.727a1.345,1.345,0,0,0,1.025-.436Z" transform="translate(-115.084 -30.296)"/>
      <path id="Path_2236" data-name="Path 2236" d="M145.192,48.782a1.549,1.549,0,0,0-.313-1.033,1.011,1.011,0,0,0-.807-.371,1.12,1.12,0,0,0-.9.429,1.774,1.774,0,0,0-.356,1.185v3.57h-1.883V48.782a1.549,1.549,0,0,0-.32-1.033,1.011,1.011,0,0,0-.793-.422,1.134,1.134,0,0,0-.9.429,1.774,1.774,0,0,0-.364,1.185v3.57H136.67V45.677h1.883v.836c.051-.073.124-.16.218-.269a2.952,2.952,0,0,1,.611-.429,1.963,1.963,0,0,1,1-.276,2.4,2.4,0,0,1,.764.124,2.066,2.066,0,0,1,.567.3,2.75,2.75,0,0,1,.364.342,1.221,1.221,0,0,1,.211.305l.051.124.095-.131a2.472,2.472,0,0,1,.284-.284,2.8,2.8,0,0,1,.458-.364,2.713,2.713,0,0,1,.647-.291,2.857,2.857,0,0,1,.829-.124,2.254,2.254,0,0,1,1.8.764,3.367,3.367,0,0,1,.654,2.247v3.992h-1.891Z" transform="translate(-118.056 -30.304)"/>
      <path id="Path_2237" data-name="Path 2237" d="M156.311,52.419a2.313,2.313,0,0,1-.727-.48l-.211-.255v3.781H153.49V45.678h1.883v.836l.087-.1.247-.225a2.835,2.835,0,0,1,.407-.305,2.341,2.341,0,0,1,.567-.233,2.4,2.4,0,0,1,.727-.109,3.083,3.083,0,0,1,2.312,1.062,3.781,3.781,0,0,1,0,5.09,3.083,3.083,0,0,1-2.32,1.033A2.494,2.494,0,0,1,156.311,52.419Zm-.444-4.683a2.116,2.116,0,0,0,0,2.72,1.556,1.556,0,0,0,1.193.531,1.534,1.534,0,0,0,1.185-.531,2.116,2.116,0,0,0,0-2.72,1.534,1.534,0,0,0-1.185-.531,1.556,1.556,0,0,0-1.193.545Z" transform="translate(-122.645 -30.305)"/>
      <path id="Path_2238" data-name="Path 2238" d="M169.941,51.9c-.051.058-.131.138-.233.233a2.735,2.735,0,0,1-.662.371,2.7,2.7,0,0,1-2.981-.56,2.952,2.952,0,0,1-.727-2.1V45.73h1.883v3.919a1.273,1.273,0,0,0,.378.953,1.323,1.323,0,0,0,.953.378,1.309,1.309,0,0,0,1.025-.422,1.68,1.68,0,0,0,.378-1.185V45.737h1.891V52.6h-1.891Z" transform="translate(-125.876 -30.357)"/>
      <path id="Path_2239" data-name="Path 2239" d="M180.421,47.706a1.517,1.517,0,0,0-.131-.153,1.965,1.965,0,0,0-.385-.247,1.3,1.3,0,0,0-.6-.153,1,1,0,0,0-.611.167.466.466,0,0,0-.225.385.509.509,0,0,0,.32.444,4.2,4.2,0,0,0,.778.32c.313.095.618.2.938.334a1.934,1.934,0,0,1,.793.625,1.781,1.781,0,0,1,.32,1.076,1.949,1.949,0,0,1-.727,1.549,2.989,2.989,0,0,1-2,.618,4.036,4.036,0,0,1-1.04-.131,2.865,2.865,0,0,1-.8-.313,4.927,4.927,0,0,1-.538-.364,2.362,2.362,0,0,1-.327-.305l-.1-.145,1.054-1.04a1.655,1.655,0,0,0,.175.2,2.1,2.1,0,0,0,.5.342,1.592,1.592,0,0,0,.793.218,1.113,1.113,0,0,0,.684-.175.545.545,0,0,0,.225-.458.538.538,0,0,0-.32-.465,3.723,3.723,0,0,0-.793-.327,7.546,7.546,0,0,1-.931-.342,1.992,1.992,0,0,1-.785-.611,1.7,1.7,0,0,1-.32-1.054,1.956,1.956,0,0,1,.771-1.5,2.785,2.785,0,0,1,1.891-.669,3.127,3.127,0,0,1,1.309.269,2.589,2.589,0,0,1,.829.516l.24.269Z" transform="translate(-128.809 -30.304)"/>
      <path id="Path_2240" data-name="Path 2240" d="M111.07,58.69h2.24l2.516,7.271,2.523-7.271h2.24l-3.636,9.8h-2.24Z" transform="translate(-111.07 -33.893)"/>
      <path id="Path_2241" data-name="Path 2241" d="M129.57,68.608a3.585,3.585,0,0,1-5.09,0,3.4,3.4,0,0,1,0-5,3.585,3.585,0,0,1,5.09,0,3.418,3.418,0,0,1,0,5Zm-3.738-1.2a1.607,1.607,0,0,0,2.37,0,1.941,1.941,0,0,0,0-2.589,1.607,1.607,0,0,0-2.37,0A1.941,1.941,0,0,0,125.833,67.408Z" transform="translate(-114.431 -34.947)"/>
      <path id="Path_2242" data-name="Path 2242" d="M139.45,64.528a2.138,2.138,0,0,0-.625-.08,1.512,1.512,0,0,0-1.178.473,1.927,1.927,0,0,0-.436,1.352v3.294H135.32V62.7h1.891v.836l.233-.247a2.807,2.807,0,0,1,.654-.407,2.414,2.414,0,0,1,1.076-.255h.276Z" transform="translate(-117.687 -34.968)"/>
      <path id="Path_2243" data-name="Path 2243" d="M146.032,68.835l-.225.233a2.77,2.77,0,0,1-.64.371,2.392,2.392,0,0,1-1.025.225,2.422,2.422,0,0,1-1.665-.567,1.8,1.8,0,0,1-.647-1.382,1.92,1.92,0,0,1,.545-1.4,2.611,2.611,0,0,1,1.454-.727l2.181-.385a.88.88,0,0,0-.313-.727,1.294,1.294,0,0,0-.873-.276,2.022,2.022,0,0,0-.851.174,1.52,1.52,0,0,0-.538.364l-.16.16-1.04-1.047c0-.036.065-.08.109-.145a4.157,4.157,0,0,1,.32-.32,3.163,3.163,0,0,1,1.316-.727,3.447,3.447,0,0,1,.982-.145,2.952,2.952,0,0,1,2.116.778,2.567,2.567,0,0,1,.822,1.949v4.276h-1.883Zm-.378-1.113a1.585,1.585,0,0,0,.378-1.134v-.211l-1.534.284c-.516.08-.771.334-.771.771s.3.727.909.727A1.331,1.331,0,0,0,145.654,67.723Z" transform="translate(-119.463 -34.934)"/>
      <path id="Path_2244" data-name="Path 2244" d="M156.83,64.528a2.138,2.138,0,0,0-.625-.08,1.512,1.512,0,0,0-1.178.473,1.927,1.927,0,0,0-.436,1.352v3.294H152.7V62.7h1.891v.836l.233-.247a2.734,2.734,0,0,1,.662-.407,2.363,2.363,0,0,1,1.069-.254h.276Z" transform="translate(-122.43 -34.968)"/>
      <path id="Path_2245" data-name="Path 2245" d="M161.8,68.492H159.91v-9.8H161.8Z" transform="translate(-124.397 -33.893)"/>
      <path id="Path_2246" data-name="Path 2246" d="M171.432,62.551a3.759,3.759,0,0,1,0,5.09,3.076,3.076,0,0,1-2.305,1.033,2.581,2.581,0,0,1-1.105-.24,2.182,2.182,0,0,1-.727-.48l-.2-.313v.843H165.2V58.69h1.891v3.774l.087-.1.24-.225a2.834,2.834,0,0,1,.407-.305,2.29,2.29,0,0,1,.574-.233,2.414,2.414,0,0,1,.727-.109A3.054,3.054,0,0,1,171.432,62.551Zm-1.454,3.9a2.138,2.138,0,0,0,0-2.72,1.556,1.556,0,0,0-1.192-.531,1.534,1.534,0,0,0-1.185.531,2.116,2.116,0,0,0,0,2.72,1.534,1.534,0,0,0,1.185.531,1.556,1.556,0,0,0,1.178-.56Z" transform="translate(-125.84 -33.893)"/>
      <path id="Path_2247" data-name="Path 2247" d="M178.409,66.735a1.563,1.563,0,0,0,.6.945,1.9,1.9,0,0,0,1.229.385,2.327,2.327,0,0,0,.982-.2,1.934,1.934,0,0,0,.64-.422l.2-.211.974,1.258-.131.124a2.836,2.836,0,0,1-.364.291,3.679,3.679,0,0,1-1.411.647,4.058,4.058,0,0,1-1.033.124,3.56,3.56,0,0,1-2.581-6.086,3.468,3.468,0,0,1,2.523-1.047,3.345,3.345,0,0,1,3.425,3.432l-.065.727Zm.6-2.232a1.833,1.833,0,0,0-.6.909h3.156a1.542,1.542,0,0,0-.524-.9,1.5,1.5,0,0,0-1.018-.356,1.534,1.534,0,0,0-.989.349Z" transform="translate(-128.913 -34.943)"/>
      <path id="Path_2248" data-name="Path 2248" d="M192.123,64.528a2.138,2.138,0,0,0-.625-.08,1.512,1.512,0,0,0-1.178.473,1.927,1.927,0,0,0-.436,1.352v3.294H188V62.7h1.891v.836l.233-.247a2.734,2.734,0,0,1,.662-.407,2.363,2.363,0,0,1,1.069-.254h.276Z" transform="translate(-132.061 -34.968)"/>
      <path id="Path_2249" data-name="Path 2249" d="M199.639,68.415l-.087.109c-.044.044-.124.124-.247.233a2.793,2.793,0,0,1-.407.3,2.1,2.1,0,0,1-.567.24,2.414,2.414,0,0,1-.727.109,2.85,2.85,0,0,1-2.123-1.025,3.5,3.5,0,0,1,0-4.814A2.85,2.85,0,0,1,197.6,62.54a2.487,2.487,0,0,1,1.105.247,2.065,2.065,0,0,1,.727.48l.218.247v-.836h1.883v6.3a3.36,3.36,0,0,1-1.033,2.494,3.577,3.577,0,0,1-2.6,1.011,4.2,4.2,0,0,1-2.021-.516,4.922,4.922,0,0,1-.625-.429,2.289,2.289,0,0,1-.378-.371l-.124-.153,1.185-1.127a2.245,2.245,0,0,0,.211.254,2.342,2.342,0,0,0,.633.407,2.269,2.269,0,0,0,1.047.247,1.694,1.694,0,0,0,1.825-1.818Zm-2.7-1.243a1.454,1.454,0,0,0,1.091.48,1.505,1.505,0,0,0,1.127-.494,1.694,1.694,0,0,0,0-2.378,1.527,1.527,0,0,0-1.127-.487,1.454,1.454,0,0,0-1.091.473A1.832,1.832,0,0,0,196.934,67.172Z" transform="translate(-133.84 -34.943)"/>
    </g>
  </g>
</svg>
